<?xml version="1.0" encoding="UTF-8"?>
<svg version="1.1" xmlns="http://www.w3.org/2000/svg" width="500" height="193">
<path d="M0 0 C0.87914063 0.22171875 1.75828125 0.4434375 2.6640625 0.671875 C21.85959333 6.53563946 37.42950464 24.02473603 47 41 C50.89491771 48.84149214 52.15401016 56.07794219 52.16796875 64.8203125 C52.17129715 65.5602243 52.17462555 66.30013611 52.17805481 67.06246948 C52.18309676 68.62399682 52.18546398 70.18553484 52.18530273 71.74707031 C52.18747431 74.09719366 52.20561766 76.44683541 52.22460938 78.796875 C52.30514919 99.18100344 47.96311545 114.7690536 33.3828125 129.67578125 C14.89132918 147.71281286 -3.9773541 153.54145028 -29.578125 153.2734375 C-48.63049631 152.78726026 -65.3094866 146.99639215 -78.95703125 133.3046875 C-93.6395959 117.78245644 -101.00206574 99.34974514 -102 78 C-102.05285156 77.00742188 -102.10570313 76.01484375 -102.16015625 74.9921875 C-102.6992194 55.91403938 -97.64330573 39.70420131 -84.59179688 25.71044922 C-83.51068085 24.54874694 -82.44200082 23.37537153 -81.38476562 22.19189453 C-61.0744365 -0.50399692 -29.49035961 -7.80360285 0 0 Z M-54 39 C-55.32668089 40.10111145 -55.32668089 40.10111145 -55.12025452 42.85365295 C-55.11803391 44.13050461 -55.11581329 45.40735626 -55.11352539 46.72290039 C-55.11367142 47.4253035 -55.11381744 48.1277066 -55.1139679 48.85139465 C-55.11326872 51.18351278 -55.10547617 53.515552 -55.09765625 55.84765625 C-55.09579208 57.46048438 -55.09436818 59.07331307 -55.09336853 60.68614197 C-55.08954323 64.93915357 -55.07971285 69.19213124 -55.06866455 73.44512939 C-55.05845069 77.7817743 -55.05387096 82.11842467 -55.04882812 86.45507812 C-55.03809059 94.97006769 -55.02101403 103.48502963 -55 112 C-51.08924973 113.95537514 -45.46603158 110.95782389 -41.453125 109.625 C-34.28335836 107.09739525 -27.68510666 103.58757782 -21 100 C-19.99485352 99.46600586 -18.98970703 98.93201172 -17.95410156 98.38183594 C-8.03311548 93.11328051 -8.03311548 93.11328051 1.83007812 87.73779297 C4.02570186 86.53412309 6.23953204 85.36329953 8.46679688 84.21923828 C10.11518555 83.33921143 10.11518555 83.33921143 11.796875 82.44140625 C12.79557617 81.92392822 13.79427734 81.4064502 14.82324219 80.87329102 C17.32292043 79.13939539 17.32292043 79.13939539 17.42431641 75.95092773 C16.87448708 72.12711468 15.76371116 70.68321472 13 68 C10.78729268 66.67586018 8.7024044 65.57062989 6.375 64.5 C4.9526476 63.81740012 3.53081147 63.13372389 2.109375 62.44921875 C1.31208984 62.06942871 0.51480469 61.68963867 -0.30664062 61.29833984 C-5.69463399 58.70104573 -11.02935101 55.9955449 -16.375 53.3125 C-19.59081603 51.70388062 -22.80705007 50.0962289 -26.02661133 48.49511719 C-27.93668342 47.53467039 -29.83847505 46.55747358 -31.72924805 45.55957031 C-36.85821936 42.876769 -41.36013363 41.15757499 -47.0625 40.125 C-48.35285156 39.88007812 -49.64320312 39.63515625 -50.97265625 39.3828125 C-52.47119141 39.19332031 -52.47119141 39.19332031 -54 39 Z " fill="#CE2245" transform="translate(115,22)"/>
<path d="M0 0 C1.48693359 0.13535156 1.48693359 0.13535156 3.00390625 0.2734375 C5.4375 0.625 5.4375 0.625 6.4375 1.625 C6.59746166 4.21653107 6.69688697 6.7845202 6.75390625 9.37890625 C6.77468735 10.15435287 6.79546844 10.9297995 6.81687927 11.72874451 C6.88245802 14.21490308 6.94129799 16.70117045 7 19.1875 C7.04317733 20.86915204 7.08679136 22.55079294 7.13085938 24.23242188 C7.23814779 28.36316871 7.33939132 32.49402536 7.4375 36.625 C9.36310841 32.69181348 11.27629132 28.75270115 13.1875 24.8125 C13.72632813 23.71228516 14.26515625 22.61207031 14.8203125 21.47851562 C17.81078462 15.29699093 20.38825548 9.27123626 22.29394531 2.6652832 C23.4375 0.625 23.4375 0.625 25.82324219 -0.19458008 C29.1605198 -0.42489836 32.15939766 -0.0054043 35.4375 0.625 C37.44927938 2.63677938 36.83220272 6.61098379 36.97265625 9.37890625 C37.01563339 10.15435287 37.05861053 10.9297995 37.10289001 11.72874451 C37.23965548 14.2147794 37.36989394 16.70110854 37.5 19.1875 C37.59136841 20.86916396 37.68315971 22.550805 37.77539062 24.23242188 C38.00100852 28.36303091 38.22077185 32.49391537 38.4375 36.625 C40.61189778 33.36340333 42.05191445 29.99910236 43.5546875 26.40234375 C44.16735076 24.96262748 44.78065153 23.52318237 45.39453125 22.08398438 C46.35738741 19.81952577 47.31617856 17.55368864 48.26416016 15.28295898 C49.18235311 13.08828287 50.11702568 10.90125933 51.0546875 8.71484375 C51.47365799 7.69450294 51.47365799 7.69450294 51.90109253 6.65354919 C53.08138382 3.93152657 53.98139808 1.95612166 56.41455078 0.18969727 C59.43469026 -0.65336122 62.32493252 -0.49471413 65.4375 -0.375 C66.53881836 1.33227539 66.53881836 1.33227539 67.4375 3.625 C66.90063477 5.88452148 66.90063477 5.88452148 65.81640625 8.30859375 C65.4311377 9.19015137 65.04586914 10.07170898 64.64892578 10.97998047 C64.24915527 11.85283691 63.84938477 12.72569336 63.4375 13.625 C63.1060498 14.37797363 62.77459961 15.13094727 62.43310547 15.90673828 C61.43066043 18.17500399 60.40538991 20.43180064 59.375 22.6875 C56.6986785 28.576663 54.0563595 34.47796244 51.4765625 40.41015625 C50.98164307 41.54638428 50.48672363 42.6826123 49.97680664 43.85327148 C49.00345608 46.09202604 48.03380136 48.33239162 47.06811523 50.57446289 C46.40211304 52.1038147 46.40211304 52.1038147 45.72265625 53.6640625 C45.13303101 55.02845459 45.13303101 55.02845459 44.53149414 56.42041016 C43.4375 58.625 43.4375 58.625 41.4375 60.625 C38.43359375 60.85546875 38.43359375 60.85546875 34.875 60.8125 C33.10962891 60.80283203 33.10962891 60.80283203 31.30859375 60.79296875 C28.4375 60.625 28.4375 60.625 27.4375 59.625 C27.13531089 57.18301604 26.89032769 54.75914938 26.68359375 52.30859375 C26.61842056 51.57753922 26.55324738 50.84648468 26.48609924 50.09327698 C26.2781804 47.75003459 26.07652702 45.40629993 25.875 43.0625 C25.73543726 41.47717729 25.59546863 39.89189025 25.45507812 38.30664062 C25.11116794 34.41315932 24.77287725 30.51922522 24.4375 26.625 C24.201521 27.19307373 23.96554199 27.76114746 23.72241211 28.34643555 C19.11039435 39.40209139 14.43007362 50.23915698 8.4375 60.625 C6.12506208 60.65185412 3.8125373 60.67132841 1.5 60.6875 C0.21222656 60.69910156 -1.07554687 60.71070313 -2.40234375 60.72265625 C-5.5625 60.625 -5.5625 60.625 -6.5625 59.625 C-6.68587174 57.78468011 -6.74041308 55.93970589 -6.76782227 54.09545898 C-6.78776749 52.91431015 -6.80771271 51.73316132 -6.82826233 50.51622009 C-6.85333107 48.58813255 -6.85333107 48.58813255 -6.87890625 46.62109375 C-6.89968735 45.31294205 -6.92046844 44.00479034 -6.94187927 42.65699768 C-6.997163 39.17344553 -7.04654431 35.6898334 -7.09472656 32.20617676 C-7.14489574 28.6536727 -7.20060567 25.1012561 -7.25585938 21.54882812 C-7.36351791 14.57429454 -7.46494567 7.59968202 -7.5625 0.625 C-4.85446778 -0.72901611 -2.99767683 -0.28921523 0 0 Z " fill="#CE2346" transform="translate(186.5625,69.375)"/>
<path d="M0 0 C1.51400391 0.01740234 1.51400391 0.01740234 3.05859375 0.03515625 C4.07050781 0.04417969 5.08242188 0.05320312 6.125 0.0625 C7.29869141 0.07990234 7.29869141 0.07990234 8.49609375 0.09765625 C8.64973426 4.39959062 8.62267704 8.11997155 7.49609375 12.28515625 C6.6590876 15.47624218 6.29284388 17.84565836 6.49609375 21.09765625 C6.99109375 20.62328125 7.48609375 20.14890625 7.99609375 19.66015625 C12.61714783 16.77199745 17.0082667 16.82026477 22.18359375 17.78515625 C26.44965548 19.4754826 29.53551528 21.14616525 31.609375 25.359375 C34.66759229 34.80347333 32.33528399 45.23152628 28.49609375 54.09765625 C25.30377348 59.79395273 21.03843867 62.32658735 14.94921875 64.44140625 C8.52890405 66.15894267 4.22446702 64.96184288 -1.50390625 62.09765625 C-1.83390625 61.76765625 -2.16390625 61.43765625 -2.50390625 61.09765625 C-3.16390625 62.08765625 -3.82390625 63.07765625 -4.50390625 64.09765625 C-7.0703125 64.42578125 -7.0703125 64.42578125 -10.06640625 64.34765625 C-11.05769531 64.3321875 -12.04898437 64.31671875 -13.0703125 64.30078125 C-15.50390625 64.09765625 -15.50390625 64.09765625 -16.50390625 63.09765625 C-15.98913905 56.39517726 -14.73814236 49.95760949 -13.2890625 43.40234375 C-12.96535927 41.91482101 -12.96535927 41.91482101 -12.63511658 40.39724731 C-12.18087076 38.31432457 -11.72442137 36.23188128 -11.26586914 34.14990234 C-10.56715628 30.97606319 -9.87579675 27.80068926 -9.18554688 24.625 C-8.74131654 22.59235365 -8.29666925 20.55979836 -7.8515625 18.52734375 C-7.64628433 17.58551239 -7.44100616 16.64368103 -7.22950745 15.67330933 C-3.8013533 0.14825871 -3.8013533 0.14825871 0 0 Z M3.49609375 33.09765625 C0.49312089 38.37874645 -0.30834048 43.14484298 0.49609375 49.09765625 C1.27305858 51.7750011 1.27305858 51.7750011 3.49609375 53.09765625 C8.31775291 53.79757452 10.32125018 53.93310056 14.30859375 51.09765625 C18.68018384 45.1023327 20.24759544 39.48742286 19.49609375 32.09765625 C18.66276042 29.93098958 18.66276042 29.93098958 16.49609375 29.09765625 C10.72437153 28.44601019 7.55894039 28.57048428 3.49609375 33.09765625 Z " fill="#CE2346" transform="translate(407.50390625,65.90234375)"/>
<path d="M0 0 C1.10698242 -0.03673828 1.10698242 -0.03673828 2.23632812 -0.07421875 C7.46959546 -0.10212951 10.40437908 0.94168915 14.5625 4.375 C17.23829576 8.33052416 16.69150681 12.4513979 16.08984375 17.0078125 C14.98621134 21.96189576 12.3540468 23.82700606 8.3125 26.625 C1.96694195 29.62824121 -5.54963791 29.20781888 -12.4375 29.375 C-12.08963292 31.35036745 -12.08963292 31.35036745 -11.4375 33.375 C-8.24519565 34.97115217 -4.90284758 34.89680909 -1.4375 34.375 C0.25571939 33.07555256 1.92645804 31.74573786 3.5625 30.375 C7.43512999 30.46945439 9.65868319 31.90137828 12.5625 34.375 C12.2776876 37.69781131 11.60512581 39.31905362 9.5625 42 C3.6919688 46.64750386 -2.67544715 47.924267 -10.08203125 47.66015625 C-16.34401531 46.90207194 -20.42361763 44.09721455 -24.4375 39.375 C-25.79983092 35.28800724 -25.70100956 31.46926461 -25.75 27.1875 C-25.77900391 26.36185547 -25.80800781 25.53621094 -25.83789062 24.68554688 C-25.91053157 17.59467282 -24.16826163 12.49121705 -19.47265625 7.1328125 C-18.82167969 6.59398438 -18.17070312 6.05515625 -17.5 5.5 C-16.85160156 4.94570312 -16.20320313 4.39140625 -15.53515625 3.8203125 C-10.47977585 0.3370895 -5.96039804 0.0103569 0 0 Z M-10.4375 14.375 C-11.17425689 16.44352824 -11.17425689 16.44352824 -11.4375 18.375 C-4.73520411 18.75167735 -4.73520411 18.75167735 1.6875 17.125 C2.30625 16.5475 2.925 15.97 3.5625 15.375 C3.5625 14.055 3.5625 12.735 3.5625 11.375 C2.48500591 10.09131937 2.48500591 10.09131937 -0.0625 10.0625 C-4.57798008 10.48060001 -6.73071258 11.75844417 -10.4375 14.375 Z " fill="#CF294B" transform="translate(275.4375,83.625)"/>
<path d="M0 0 C1.03543945 -0.03673828 1.03543945 -0.03673828 2.09179688 -0.07421875 C7.25130524 -0.10356193 10.07772298 1.1800521 14.0625 4.375 C16.79803698 7.11053698 16.76062951 9.30338547 17.0859375 13.0625 C17.03679945 17.91078749 14.76851821 20.59656967 11.625 24.0625 C4.81947492 29.31054173 -4.68293173 29.78772841 -12.9375 29.375 C-12.58963292 31.35036745 -12.58963292 31.35036745 -11.9375 33.375 C-8.74573406 34.97088297 -5.40242818 34.89775512 -1.9375 34.375 C-0.259202 33.05633728 1.40864767 31.72419532 3.0625 30.375 C6.91951519 30.375 8.51765869 30.90184834 11.4375 33.4375 C11.97375 34.076875 12.51 34.71625 13.0625 35.375 C11.69660617 39.845198 9.99927047 41.86216779 6.0625 44.375 C-0.39864254 47.31074243 -7.18908825 48.88935834 -14.10546875 46.68359375 C-18.99639997 44.4904745 -21.87276951 41.73991918 -24.9375 37.375 C-27.34096388 30.16460835 -27.11620833 20.7977574 -23.9375 13.875 C-18.36040186 4.36858272 -10.90426166 0.02024933 0 0 Z M-11.9375 15.375 C-11.9375 16.365 -11.9375 17.355 -11.9375 18.375 C-4.69955058 18.7887448 -4.69955058 18.7887448 2.25 17.125 C3.1471875 16.25875 3.1471875 16.25875 4.0625 15.375 C4.0625 14.055 4.0625 12.735 4.0625 11.375 C-1.93080166 8.37834917 -7.66268302 10.76235554 -11.9375 15.375 Z " fill="#D02C4E" transform="translate(471.9375,83.625)"/>
<path d="M0 0 C1.50046875 0.00386719 1.50046875 0.00386719 3.03125 0.0078125 C4.0315625 0.00523438 5.031875 0.00265625 6.0625 0 C8.53125 0.1328125 8.53125 0.1328125 9.53125 1.1328125 C8.91875452 7.99431251 7.41342082 14.61995953 5.90429688 21.33007812 C4.59486855 27.17104954 4.59486855 27.17104954 4.53125 33.1328125 C5.68693119 34.51049894 5.68693119 34.51049894 8.84375 34.3203125 C13.04678162 34.1147809 13.04678162 34.1147809 16.53125 32.1328125 C17.82160978 29.59053259 17.82160978 29.59053259 18.65625 26.5703125 C18.98496094 25.49007812 19.31367188 24.40984375 19.65234375 23.296875 C21.44319327 16.84981672 22.71599477 10.66405534 23.1875 3.98046875 C23.53125 2.1328125 23.53125 2.1328125 25.53125 0.1328125 C28.1328125 -0.0625 28.1328125 -0.0625 31.15625 0.0078125 C32.66058594 0.03488281 32.66058594 0.03488281 34.1953125 0.0625 C34.96617187 0.08570312 35.73703125 0.10890625 36.53125 0.1328125 C37.7834112 3.73358138 37.27619511 6.26461904 36.421875 9.9375 C36.16301514 11.07268066 35.90415527 12.20786133 35.63745117 13.37744141 C35.35490479 14.57546387 35.0723584 15.77348633 34.78125 17.0078125 C34.2196031 19.45041764 33.65840091 21.89312508 33.09765625 24.3359375 C32.8258252 25.50833984 32.55399414 26.68074219 32.27392578 27.88867188 C31.13028044 32.88431926 30.09715228 37.90020132 29.07421875 42.921875 C28.53125 45.1328125 28.53125 45.1328125 27.53125 46.1328125 C25.92961084 46.23200327 24.32345082 46.26251148 22.71875 46.2578125 C21.84605469 46.26039063 20.97335937 46.26296875 20.07421875 46.265625 C17.53125 46.1328125 17.53125 46.1328125 15.37890625 45.56640625 C13.35921126 44.92011694 13.35921126 44.92011694 10.78125 46.0703125 C5.57738123 47.77157729 1.40476706 47.76910131 -3.78125 46.0078125 C-7.20040557 43.62235513 -8.16908503 42.10401102 -9.46875 38.1328125 C-10.33661348 29.8717065 -8.40857774 22.06506517 -6.53125 14.0703125 C-6.25345703 12.83603516 -5.97566406 11.60175781 -5.68945312 10.33007812 C-3.36891974 0.18123935 -3.36891974 0.18123935 0 0 Z " fill="#CF2649" transform="translate(351.46875,83.8671875)"/>
<path d="M0 0 C0.8374173 -0.00315216 1.67483459 -0.00630432 2.53762817 -0.009552 C3.8877449 -0.00651566 3.8877449 -0.00651566 5.26513672 -0.00341797 C6.19075409 -0.00437469 7.11637146 -0.00533142 8.07003784 -0.00631714 C10.02520821 -0.00699744 11.98038085 -0.00515358 13.93554688 -0.00097656 C16.93999249 0.00438591 19.94428944 -0.00093284 22.94873047 -0.00732422 C24.84586622 -0.00666365 26.74300187 -0.00538293 28.64013672 -0.00341797 C29.544263 -0.0054422 30.44838928 -0.00746643 31.37991333 -0.009552 C37.70486632 0.01443664 37.70486632 0.01443664 38.81982422 1.12939453 C38.78202349 2.7780877 38.6651212 4.42533486 38.50732422 6.06689453 C38.42869141 6.96279297 38.35005859 7.85869141 38.26904297 8.78173828 C37.81982422 11.12939453 37.81982422 11.12939453 35.81982422 13.12939453 C33.23918293 13.27437438 30.77038538 13.31616998 28.19482422 13.25439453 C27.48841797 13.24537109 26.78201172 13.23634766 26.05419922 13.22705078 C24.30926324 13.20347057 22.56450127 13.16759914 20.81982422 13.12939453 C20.69898468 13.7159935 20.57814514 14.30259247 20.4536438 14.90696716 C19.19842281 20.99181681 17.93134108 27.07410834 16.65722656 33.1550293 C16.18279904 35.4271762 15.71143743 37.69996546 15.24316406 39.97338867 C14.5709748 43.23414611 13.8879253 46.49246216 13.20263672 49.75048828 C12.9942215 50.77339462 12.78580627 51.79630096 12.57107544 52.85020447 C12.37101898 53.79110428 12.17096252 54.73200409 11.96484375 55.70141602 C11.79163605 56.53414536 11.61842834 57.36687469 11.43997192 58.22483826 C11.23532318 58.85334183 11.03067444 59.4818454 10.81982422 60.12939453 C8.17524043 61.45168643 6.14221121 61.22616647 3.19482422 61.19189453 C2.19193359 61.18287109 1.18904297 61.17384766 0.15576172 61.16455078 C-0.61509766 61.15294922 -1.38595703 61.14134766 -2.18017578 61.12939453 C-3.58149415 56.48375661 -2.66149616 52.60254128 -1.56298828 48.01220703 C-1.38637665 47.23682587 -1.20976501 46.4614447 -1.02780151 45.66256714 C-0.46309491 43.19087663 0.11522467 40.722631 0.69482422 38.25439453 C1.26474315 35.79278873 1.83175187 33.33055091 2.39602661 30.86764526 C2.74722405 29.3385387 3.10205521 27.81026048 3.46115112 26.2829895 C3.6244693 25.57890961 3.78778748 24.87482971 3.95605469 24.14941406 C4.09896942 23.54050323 4.24188416 22.93159241 4.38912964 22.30422974 C4.99041934 19.26795746 5.38209145 16.19352388 5.81982422 13.12939453 C0.86982422 12.79939453 -4.08017578 12.46939453 -9.18017578 12.12939453 C-9.18017578 3.86623664 -9.18017578 3.86623664 -7.18017578 1.12939453 C-4.43664343 0.21488375 -2.82398057 0.00305078 0 0 Z " fill="#CD1E42" transform="translate(310.18017578125,68.87060546875)"/>
<path d="M0 0 C1.48693359 0.13535156 1.48693359 0.13535156 3.00390625 0.2734375 C5.4375 0.625 5.4375 0.625 6.4375 1.625 C6.59746166 4.21653107 6.69688697 6.7845202 6.75390625 9.37890625 C6.77468735 10.15435287 6.79546844 10.9297995 6.81687927 11.72874451 C6.88245802 14.21490308 6.94129799 16.70117045 7 19.1875 C7.04317733 20.86915204 7.08679136 22.55079294 7.13085938 24.23242188 C7.23814779 28.36316871 7.33939132 32.49402536 7.4375 36.625 C8.0975 35.965 8.7575 35.305 9.4375 34.625 C9.1075 36.605 8.7775 38.585 8.4375 40.625 C6.4575 41.12 6.4575 41.12 4.4375 41.625 C4.4375 28.425 4.4375 15.225 4.4375 1.625 C1.1375 1.625 -2.1625 1.625 -5.5625 1.625 C-5.5625 20.435 -5.5625 39.245 -5.5625 58.625 C-1.2725 58.625 3.0175 58.625 7.4375 58.625 C8.0975 56.645 8.7575 54.665 9.4375 52.625 C10.47212913 50.23549126 11.52653253 47.87111305 12.625 45.51171875 C12.92817139 44.85669876 13.23134277 44.20167877 13.54370117 43.52680969 C14.18074333 42.15371534 14.81952271 40.78142575 15.45996094 39.40991211 C16.44125523 37.30444277 17.41220383 35.19439712 18.3828125 33.08398438 C19.00458413 31.74710535 19.62695856 30.41050647 20.25 29.07421875 C20.53963623 28.44198898 20.82927246 27.80975922 21.12768555 27.15837097 C23.20860144 22.73944928 23.20860144 22.73944928 25.4375 21.625 C25.4375 22.285 25.4375 22.945 25.4375 23.625 C26.0975 23.625 26.7575 23.625 27.4375 23.625 C28.14875207 35.30985544 28.58284014 46.91704426 28.4375 58.625 C34.3775 58.13 34.3775 58.13 40.4375 57.625 C52.71648028 30.24576416 52.71648028 30.24576416 64.4375 2.625 C61.4675 2.295 58.4975 1.965 55.4375 1.625 C55.7675 0.965 56.0975 0.305 56.4375 -0.375 C59.4075 -0.375 62.3775 -0.375 65.4375 -0.375 C67.4375 3.625 67.4375 3.625 66.90063477 5.88452148 C66.54283936 6.68446533 66.18504395 7.48440918 65.81640625 8.30859375 C65.4311377 9.19015137 65.04586914 10.07170898 64.64892578 10.97998047 C64.24915527 11.85283691 63.84938477 12.72569336 63.4375 13.625 C63.1060498 14.37797363 62.77459961 15.13094727 62.43310547 15.90673828 C61.43066043 18.17500399 60.40538991 20.43180064 59.375 22.6875 C56.6986785 28.576663 54.0563595 34.47796244 51.4765625 40.41015625 C50.98164307 41.54638428 50.48672363 42.6826123 49.97680664 43.85327148 C49.00345608 46.09202604 48.03380136 48.33239162 47.06811523 50.57446289 C46.40211304 52.1038147 46.40211304 52.1038147 45.72265625 53.6640625 C45.13303101 55.02845459 45.13303101 55.02845459 44.53149414 56.42041016 C43.4375 58.625 43.4375 58.625 41.4375 60.625 C38.43359375 60.85546875 38.43359375 60.85546875 34.875 60.8125 C33.10962891 60.80283203 33.10962891 60.80283203 31.30859375 60.79296875 C28.4375 60.625 28.4375 60.625 27.4375 59.625 C27.13531089 57.18301604 26.89032769 54.75914938 26.68359375 52.30859375 C26.61842056 51.57753922 26.55324738 50.84648468 26.48609924 50.09327698 C26.2781804 47.75003459 26.07652702 45.40629993 25.875 43.0625 C25.73543726 41.47717729 25.59546863 39.89189025 25.45507812 38.30664062 C25.11116794 34.41315932 24.77287725 30.51922522 24.4375 26.625 C24.201521 27.19307373 23.96554199 27.76114746 23.72241211 28.34643555 C19.11039435 39.40209139 14.43007362 50.23915698 8.4375 60.625 C6.12506208 60.65185412 3.8125373 60.67132841 1.5 60.6875 C0.21222656 60.69910156 -1.07554687 60.71070313 -2.40234375 60.72265625 C-5.5625 60.625 -5.5625 60.625 -6.5625 59.625 C-6.68587174 57.78468011 -6.74041308 55.93970589 -6.76782227 54.09545898 C-6.78776749 52.91431015 -6.80771271 51.73316132 -6.82826233 50.51622009 C-6.85333107 48.58813255 -6.85333107 48.58813255 -6.87890625 46.62109375 C-6.89968735 45.31294205 -6.92046844 44.00479034 -6.94187927 42.65699768 C-6.997163 39.17344553 -7.04654431 35.6898334 -7.09472656 32.20617676 C-7.14489574 28.6536727 -7.20060567 25.1012561 -7.25585938 21.54882812 C-7.36351791 14.57429454 -7.46494567 7.59968202 -7.5625 0.625 C-4.85446778 -0.72901611 -2.99767683 -0.28921523 0 0 Z " fill="#F7DEE3" transform="translate(186.5625,69.375)"/>
<path d="M0 0 C8.40971227 7.42033436 13.51936235 17.95528828 15 29 C15.10260609 31.61602415 15.16379249 34.20469185 15.16796875 36.8203125 C15.17296135 37.93018021 15.17296135 37.93018021 15.17805481 39.06246948 C15.18309676 40.62399682 15.18546398 42.18553484 15.18530273 43.74707031 C15.18747431 46.09719366 15.20561766 48.44683541 15.22460938 50.796875 C15.30514919 71.18100344 10.96311545 86.7690536 -3.6171875 101.67578125 C-22.10867082 119.71281286 -40.9773541 125.54145028 -66.578125 125.2734375 C-79.70803858 124.93838917 -97.83756884 122.54400281 -107.49365234 112.43652344 C-108.70403407 110.99153214 -109.85757726 109.49929786 -111 108 C-107.93814775 109.47109683 -105.07502252 111.15041913 -102.1875 112.9375 C-85.41791528 122.99925083 -60.33010588 125.40590959 -41.26953125 121.09375 C-29.19375891 117.76845595 -19.52363778 111.99738384 -10.5 103.37109375 C-8.47902996 101.45432998 -6.45097452 99.7574469 -4.25 98.0625 C6.81954476 88.58188511 11.3482797 72.94194017 13 59 C13.25511175 54.64065841 13.28098112 50.30325615 13.25 45.9375 C13.25773437 44.84373047 13.26546875 43.74996094 13.2734375 42.62304688 C13.24834301 32.07708765 12.0935036 22.91370486 7.0625 13.5625 C6.71509766 12.88251953 6.36769531 12.20253906 6.00976562 11.50195312 C4.23769203 8.08795823 2.31877877 5.07474426 0 2 C0 1.34 0 0.68 0 0 Z " fill="#FCF4F5" transform="translate(152,50)"/>
<path d="M0 0 C0.8374173 -0.00315216 1.67483459 -0.00630432 2.53762817 -0.009552 C3.8877449 -0.00651566 3.8877449 -0.00651566 5.26513672 -0.00341797 C6.19075409 -0.00437469 7.11637146 -0.00533142 8.07003784 -0.00631714 C10.02520821 -0.00699744 11.98038085 -0.00515358 13.93554688 -0.00097656 C16.93999249 0.00438591 19.94428944 -0.00093284 22.94873047 -0.00732422 C24.84586622 -0.00666365 26.74300187 -0.00538293 28.64013672 -0.00341797 C29.544263 -0.0054422 30.44838928 -0.00746643 31.37991333 -0.009552 C37.70486632 0.01443664 37.70486632 0.01443664 38.81982422 1.12939453 C38.78202349 2.7780877 38.6651212 4.42533486 38.50732422 6.06689453 C38.42869141 6.96279297 38.35005859 7.85869141 38.26904297 8.78173828 C37.81982422 11.12939453 37.81982422 11.12939453 35.81982422 13.12939453 C33.23918293 13.27437438 30.77038538 13.31616998 28.19482422 13.25439453 C27.48841797 13.24537109 26.78201172 13.23634766 26.05419922 13.22705078 C24.30926324 13.20347057 22.56450127 13.16759914 20.81982422 13.12939453 C20.69898468 13.7159935 20.57814514 14.30259247 20.4536438 14.90696716 C19.19842281 20.99181681 17.93134108 27.07410834 16.65722656 33.1550293 C16.18279904 35.4271762 15.71143743 37.69996546 15.24316406 39.97338867 C14.5709748 43.23414611 13.8879253 46.49246216 13.20263672 49.75048828 C12.9942215 50.77339462 12.78580627 51.79630096 12.57107544 52.85020447 C12.37101898 53.79110428 12.17096252 54.73200409 11.96484375 55.70141602 C11.79163605 56.53414536 11.61842834 57.36687469 11.43997192 58.22483826 C11.23532318 58.85334183 11.03067444 59.4818454 10.81982422 60.12939453 C8.17524043 61.45168643 6.14221121 61.22616647 3.19482422 61.19189453 C2.19193359 61.18287109 1.18904297 61.17384766 0.15576172 61.16455078 C-0.61509766 61.15294922 -1.38595703 61.14134766 -2.18017578 61.12939453 C-3.58149415 56.48375661 -2.66149616 52.60254128 -1.56298828 48.01220703 C-1.38637665 47.23682587 -1.20976501 46.4614447 -1.02780151 45.66256714 C-0.46309491 43.19087663 0.11522467 40.722631 0.69482422 38.25439453 C1.26474315 35.79278873 1.83175187 33.33055091 2.39602661 30.86764526 C2.74722405 29.3385387 3.10205521 27.81026048 3.46115112 26.2829895 C3.6244693 25.57890961 3.78778748 24.87482971 3.95605469 24.14941406 C4.09896942 23.54050323 4.24188416 22.93159241 4.38912964 22.30422974 C4.99041934 19.26795746 5.38209145 16.19352388 5.81982422 13.12939453 C0.86982422 12.79939453 -4.08017578 12.46939453 -9.18017578 12.12939453 C-9.18017578 3.86623664 -9.18017578 3.86623664 -7.18017578 1.12939453 C-4.43664343 0.21488375 -2.82398057 0.00305078 0 0 Z M-6.18017578 2.12939453 C-8.47831818 5.98032333 -8.47831818 5.98032333 -8.18017578 10.12939453 C-3.23017578 10.12939453 1.71982422 10.12939453 6.81982422 10.12939453 C6.81982422 18.00425426 6.81982422 18.00425426 6.10131836 21.24121094 C5.86591087 22.32736191 5.86591087 22.32736191 5.62574768 23.43545532 C5.4538945 24.19297089 5.28204132 24.95048645 5.10498047 25.73095703 C4.92978378 26.53044769 4.7545871 27.32993835 4.57408142 28.15365601 C4.0169982 30.6888018 3.44991525 33.22158289 2.88232422 35.75439453 C2.50469008 37.46257745 2.12773051 39.17090965 1.75146484 40.87939453 C1.06112484 44.01268081 0.36614334 47.14487315 -0.33227539 50.27636719 C-0.98017056 53.2205312 -1.58896223 56.1733268 -2.18017578 59.12939453 C1.44982422 59.12939453 5.07982422 59.12939453 8.81982422 59.12939453 C9.01616455 58.17274902 9.21250488 57.21610352 9.41479492 56.23046875 C10.15784201 52.61087812 10.90168869 48.99145217 11.64575195 45.37207031 C11.96497351 43.81872827 12.28399087 42.26534425 12.6027832 40.71191406 C14.62872503 30.84063215 16.69407901 20.97977081 18.81982422 11.12939453 C27.23482422 10.63439453 27.23482422 10.63439453 35.81982422 10.12939453 C36.14982422 7.48939453 36.47982422 4.84939453 36.81982422 2.12939453 C22.62982422 2.12939453 8.43982422 2.12939453 -6.18017578 2.12939453 Z " fill="#F5D2D9" transform="translate(310.18017578125,68.87060546875)"/>
<path d="M0 0 C1.50046875 0.00386719 1.50046875 0.00386719 3.03125 0.0078125 C4.0315625 0.00523438 5.031875 0.00265625 6.0625 0 C8.53125 0.1328125 8.53125 0.1328125 9.53125 1.1328125 C8.91875452 7.99431251 7.41342082 14.61995953 5.90429688 21.33007812 C4.59486855 27.17104954 4.59486855 27.17104954 4.53125 33.1328125 C5.56531673 34.39230299 5.56531673 34.39230299 7.81640625 34.23046875 C8.73292969 34.21886719 9.64945312 34.20726562 10.59375 34.1953125 C11.51285156 34.18628906 12.43195313 34.17726562 13.37890625 34.16796875 C14.08917969 34.15636719 14.79945313 34.14476562 15.53125 34.1328125 C13.12778621 36.53627629 12.39224805 36.45364997 9.09375 36.5078125 C7.92005859 36.55035156 7.92005859 36.55035156 6.72265625 36.59375 C4.53125 36.1328125 4.53125 36.1328125 2.88476562 34.38867188 C-0.53129233 28.69524195 2.9207224 19.86321324 4.39648438 13.7890625 C4.74163086 12.41234375 4.74163086 12.41234375 5.09375 11.0078125 C5.32771484 10.05132812 5.56167969 9.09484375 5.80273438 8.109375 C6.37285241 5.78236262 6.95118221 3.45736461 7.53125 1.1328125 C4.23125 1.4628125 0.93125 1.7928125 -2.46875 2.1328125 C-2.58992188 3.42316406 -2.71109375 4.71351562 -2.8359375 6.04296875 C-3.29315641 10.17328727 -4.08009469 14.13233379 -5.03149414 18.17358398 C-7.88004031 29.13642462 -7.88004031 29.13642462 -6.46875 40.1328125 C-4.29144443 42.99052606 -2.87658465 43.88909895 0.65234375 44.5 C6.12649036 44.81386338 9.19629288 43.6420635 13.53125 40.1328125 C14.52125 39.4728125 15.51125 38.8128125 16.53125 38.1328125 C16.86125 39.7828125 17.19125 41.4328125 17.53125 43.1328125 C20.50125 43.4628125 23.47125 43.7928125 26.53125 44.1328125 C26.76199219 42.88371094 26.99273437 41.63460937 27.23046875 40.34765625 C29.74318302 26.88426154 32.55756811 13.50153176 35.53125 0.1328125 C37.14531821 2.61821811 37.55981564 3.85240956 37.25512695 6.84326172 C37.01238037 7.86436035 36.76963379 8.88545898 36.51953125 9.9375 C36.25744873 11.07268066 35.99536621 12.20786133 35.7253418 13.37744141 C35.28895386 15.1744751 35.28895386 15.1744751 34.84375 17.0078125 C34.27302937 19.45042551 33.702713 21.89313301 33.1328125 24.3359375 C32.71563965 26.09454102 32.71563965 26.09454102 32.29003906 27.88867188 C31.12239357 32.88084473 30.09753867 37.89830446 29.07421875 42.921875 C28.53125 45.1328125 28.53125 45.1328125 27.53125 46.1328125 C25.92961084 46.23200327 24.32345082 46.26251148 22.71875 46.2578125 C21.84605469 46.26039063 20.97335937 46.26296875 20.07421875 46.265625 C17.53125 46.1328125 17.53125 46.1328125 15.37890625 45.56640625 C13.35921126 44.92011694 13.35921126 44.92011694 10.78125 46.0703125 C5.57738123 47.77157729 1.40476706 47.76910131 -3.78125 46.0078125 C-7.20040557 43.62235513 -8.16908503 42.10401102 -9.46875 38.1328125 C-10.33661348 29.8717065 -8.40857774 22.06506517 -6.53125 14.0703125 C-6.25345703 12.83603516 -5.97566406 11.60175781 -5.68945312 10.33007812 C-3.36891974 0.18123935 -3.36891974 0.18123935 0 0 Z " fill="#FBEFF1" transform="translate(351.46875,83.8671875)"/>
<path d="M0 0 C0.33 0 0.66 0 1 0 C0.42362756 8.87073214 -1.47097832 17.32677932 -3.43847656 25.97045898 C-4.00396543 28.45492203 -4.56129318 30.94110867 -5.1171875 33.42773438 C-5.4734942 35.01312521 -5.83024874 36.59841549 -6.1875 38.18359375 C-6.35419189 38.9241954 -6.52088379 39.66479706 -6.69262695 40.42784119 C-7.35586159 43.33781722 -8.05545954 46.16637861 -9 49 C-5.7 49 -2.4 49 1 49 C1.33 47.35 1.66 45.7 2 44 C2.47308594 44.3609375 2.94617188 44.721875 3.43359375 45.09375 C7.8897753 48.22089495 11.27678083 49.77331296 16.76953125 49.4140625 C23.13258439 48.23283022 27.81792256 45.04797374 31.74609375 39.953125 C35.63488917 33.89581126 36.28977226 27.928594 36.4375 20.8125 C36.45989746 20.13517822 36.48229492 19.45785645 36.50537109 18.76000977 C36.48098987 13.5289531 35.1202238 10.97287902 32 7 C34.77599238 7.95723875 35.96477752 8.95345601 37.75 11.3125 C41.1054855 21.21118223 39.06942726 31.60216642 35 41 C31.80767973 46.69629648 27.54234492 49.2289311 21.453125 51.34375 C15.0328103 53.06128642 10.72837327 51.86418663 5 49 C4.67 48.67 4.34 48.34 4 48 C3.34 48.99 2.68 49.98 2 51 C-0.56640625 51.328125 -0.56640625 51.328125 -3.5625 51.25 C-4.55378906 51.23453125 -5.54507812 51.2190625 -6.56640625 51.203125 C-9 51 -9 51 -10 50 C-9.49838624 43.57910563 -8.3480618 37.42677705 -6.93359375 31.15234375 C-6.73524429 30.25504044 -6.53689484 29.35773712 -6.33253479 28.4332428 C-5.70526547 25.60032839 -5.07149964 22.76891491 -4.4375 19.9375 C-4.00803115 18.00335117 -3.57899061 16.06910718 -3.15039062 14.13476562 C-2.10520584 9.42206317 -1.05419692 4.71069433 0 0 Z " fill="#F5D3DA" transform="translate(401,79)"/>
<path d="M0 0 C2.97 0 5.94 0 9 0 C11 4 11 4 10.46313477 6.25952148 C10.10533936 7.05946533 9.74754395 7.85940918 9.37890625 8.68359375 C8.9936377 9.56515137 8.60836914 10.44670898 8.21142578 11.35498047 C7.81165527 12.22783691 7.41188477 13.10069336 7 14 C6.6685498 14.75297363 6.33709961 15.50594727 5.99560547 16.28173828 C4.99316043 18.55000399 3.96788991 20.80680064 2.9375 23.0625 C0.2611785 28.951663 -2.3811405 34.85296244 -4.9609375 40.78515625 C-5.45585693 41.92138428 -5.95077637 43.0576123 -6.46069336 44.22827148 C-7.43404392 46.46702604 -8.40369864 48.70739162 -9.36938477 50.94946289 C-9.81338623 51.96903076 -10.2573877 52.98859863 -10.71484375 54.0390625 C-11.30446899 55.40345459 -11.30446899 55.40345459 -11.90600586 56.79541016 C-13 59 -13 59 -15 61 C-18.0390625 61.1953125 -18.0390625 61.1953125 -21.625 61.125 C-23.40777344 61.09792969 -23.40777344 61.09792969 -25.2265625 61.0703125 C-26.59941406 61.03550781 -26.59941406 61.03550781 -28 61 C-28.33 60.34 -28.66 59.68 -29 59 C-22.565 58.505 -22.565 58.505 -16 58 C-3.72101972 30.62076416 -3.72101972 30.62076416 8 3 C5.03 2.67 2.06 2.34 -1 2 C-0.67 1.34 -0.34 0.68 0 0 Z " fill="#FBF0F2" transform="translate(243,69)"/>
<path d="M0 0 C15.08928571 1.16071429 15.08928571 1.16071429 23 5 C19.51460663 6.16179779 18.634577 5.77071085 15.25 4.625 C11.01165658 3.19889074 7.60774311 2.65824902 3 2 C3 26.09 3 50.18 3 75 C2.01 75 1.02 75 0 75 C0 50.25 0 25.5 0 0 Z " fill="#F9E4E8" transform="translate(58,60)"/>
<path d="M0 0 C1.61406821 2.48540561 2.02856564 3.71959706 1.72387695 6.71044922 C1.48113037 7.73154785 1.23838379 8.75264648 0.98828125 9.8046875 C0.72619873 10.93986816 0.46411621 12.07504883 0.1940918 13.24462891 C-0.24229614 15.0416626 -0.24229614 15.0416626 -0.6875 16.875 C-1.25822063 19.31761301 -1.828537 21.76032051 -2.3984375 24.203125 C-2.81561035 25.96172852 -2.81561035 25.96172852 -3.24121094 27.75585938 C-4.40885643 32.74803223 -5.43371133 37.76549196 -6.45703125 42.7890625 C-7 45 -7 45 -8 46 C-9.60163916 46.09919077 -11.20779918 46.12969898 -12.8125 46.125 C-13.68519531 46.12757813 -14.55789063 46.13015625 -15.45703125 46.1328125 C-18 46 -18 46 -20.15234375 45.43359375 C-22.17203874 44.78730444 -22.17203874 44.78730444 -24.75 45.9375 C-29.61585863 47.52826148 -34.07855685 47.64048105 -39 46 C-39 45.34 -39 44.68 -39 44 C-38.27554687 44.04640625 -37.55109375 44.0928125 -36.8046875 44.140625 C-30.57487914 44.37320451 -26.9440626 44.20245321 -22 40 C-21.01 39.34 -20.02 38.68 -19 38 C-18.67 39.65 -18.34 41.3 -18 43 C-15.03 43.33 -12.06 43.66 -9 44 C-8.76925781 42.75089844 -8.53851563 41.50179687 -8.30078125 40.21484375 C-5.78806698 26.75144904 -2.97368189 13.36871926 0 0 Z " fill="#FCF5F6" transform="translate(387,84)"/>
<path d="M0 0 C1.48693359 0.13535156 1.48693359 0.13535156 3.00390625 0.2734375 C5.4375 0.625 5.4375 0.625 6.4375 1.625 C6.59746166 4.21653107 6.69688697 6.7845202 6.75390625 9.37890625 C6.77468735 10.15435287 6.79546844 10.9297995 6.81687927 11.72874451 C6.88245802 14.21490308 6.94129799 16.70117045 7 19.1875 C7.04317733 20.86915204 7.08679136 22.55079294 7.13085938 24.23242188 C7.23814779 28.36316871 7.33939132 32.49402536 7.4375 36.625 C8.0975 35.965 8.7575 35.305 9.4375 34.625 C9.1075 36.605 8.7775 38.585 8.4375 40.625 C6.4575 41.12 6.4575 41.12 4.4375 41.625 C4.4375 28.425 4.4375 15.225 4.4375 1.625 C1.1375 1.625 -2.1625 1.625 -5.5625 1.625 C-5.5625 14.825 -5.5625 28.025 -5.5625 41.625 C-5.8925 41.625 -6.2225 41.625 -6.5625 41.625 C-6.8925 28.095 -7.2225 14.565 -7.5625 0.625 C-4.85446778 -0.72901611 -2.99767683 -0.28921523 0 0 Z " fill="#F7DEE3" transform="translate(186.5625,69.375)"/>
<path d="M0 0 C2.31640625 0.3984375 2.31640625 0.3984375 4.94140625 1.7109375 C7.57938848 6.86699367 7.15433804 12.53835398 5.55078125 18.01171875 C3.81067523 22.23078532 2.34499067 25.02186252 -1.68359375 27.3984375 C-5.09217792 28.05393446 -8.26388251 27.97217643 -11.68359375 27.3984375 C-14.30859375 25.5859375 -14.30859375 25.5859375 -15.68359375 22.3984375 C-16.73103458 14.29001323 -15.36537757 9.13668162 -10.62109375 2.5234375 C-6.91416462 -0.15817081 -4.48803119 -0.28091999 0 0 Z M-10.68359375 6.3984375 C-13.68656661 11.6795277 -14.48802798 16.44562423 -13.68359375 22.3984375 C-12.90662892 25.07578235 -12.90662892 25.07578235 -10.68359375 26.3984375 C-5.86193459 27.09835577 -3.85843732 27.23388181 0.12890625 24.3984375 C4.50049634 18.40311395 6.06790794 12.78820411 5.31640625 5.3984375 C4.48307292 3.23177083 4.48307292 3.23177083 2.31640625 2.3984375 C-3.45531597 1.74679144 -6.62074711 1.87126553 -10.68359375 6.3984375 Z " fill="#F8E2E7" transform="translate(421.68359375,92.6015625)"/>
<path d="M0 0 C2.01177938 2.01177938 1.39470272 5.98598379 1.53515625 8.75390625 C1.57813339 9.52935287 1.62111053 10.3047995 1.66539001 11.10374451 C1.80215548 13.5897794 1.93239394 16.07610854 2.0625 18.5625 C2.15386841 20.24416396 2.24565971 21.925805 2.33789062 23.60742188 C2.56350852 27.73803091 2.78327185 31.86891537 3 36 C5.16575619 32.75136571 6.62352411 29.39377143 8.125 25.8125 C8.40214844 25.15830078 8.67929688 24.50410156 8.96484375 23.83007812 C9.64597045 22.22120988 10.32335403 20.61075785 11 19 C12.10002926 21.78007394 12.01833824 22.94374727 11.07421875 25.83984375 C10.61660156 26.86207031 10.15898437 27.88429688 9.6875 28.9375 C9.01267578 30.46697266 9.01267578 30.46697266 8.32421875 32.02734375 C7.88722656 33.00832031 7.45023438 33.98929688 7 35 C6.3251696 36.66337794 5.65550907 38.3289135 5 40 C3.68 40 2.36 40 1 40 C0.65997818 35.5629865 0.32922224 31.12532684 0 26.6875 C-0.09539062 25.44419922 -0.19078125 24.20089844 -0.2890625 22.91992188 C-0.82784604 15.58861724 -1.10026773 8.3508776 -1 1 C-4.3 1 -7.6 1 -11 1 C-11.66 2.32 -12.32 3.64 -13 5 C-12.67 3.35 -12.34 1.7 -12 0 C-7.90352234 -1.53617912 -4.21176063 -0.69045256 0 0 Z " fill="#F6D7DD" transform="translate(222,70)"/>
<path d="M0 0 C3.82097239 0.53069061 6.06171403 1.49701566 9 4 C8.7151876 7.32281131 8.04262581 8.94405362 6 11.625 C0.1294688 16.27250386 -6.23794715 17.549267 -13.64453125 17.28515625 C-19.9743578 16.51885884 -23.8493303 13.65378118 -28 9 C-27.67 8.01 -27.34 7.02 -27 6 C-26.278125 6.94875 -25.55625 7.8975 -24.8125 8.875 C-21.80242525 12.42019915 -19.50462322 13.71375735 -14.8125 14.25 C-8.33861758 14.57369412 -2.60829963 13.3341084 3 10 C5.43579229 7.3712246 5.43579229 7.3712246 6 4 C4.02 3.01 2.04 2.02 0 1 C0 0.67 0 0.34 0 0 Z " fill="#FBEFF2" transform="translate(279,114)"/>
<path d="M0 0 C2.56998247 0.9423269 3.79624944 1.68952295 5.3125 4 C6.57757393 9.5203226 6.15338449 14.87777255 3.4375 19.875 C-3.25644903 25.71075044 -8.99731776 26.4963355 -17.54003906 26.58496094 C-19.36485575 26.62415748 -21.18545014 26.80276632 -23 27 C-23.66 27.99 -24.32 28.98 -25 30 C-25.33 28.35 -25.66 26.7 -26 25 C-25.10539062 24.97421875 -24.21078125 24.9484375 -23.2890625 24.921875 C-14.40520807 24.50514835 -6.54131021 23.6552009 0.5625 17.9375 C3.45782899 14.03510006 3.54717221 9.68744196 3 5 C1.6490712 2.0745356 1.6490712 2.0745356 0 0 Z " fill="#FBEEF1" transform="translate(286,86)"/>
<path d="M0 0 C2.46800047 1.15173355 4.04783565 2.04783565 6 4 C7.14788372 8.31535235 7.32694862 11.99992187 5.9375 16.25 C1.25375482 22.89789638 -3.15283417 24.76799209 -10.94921875 26.515625 C-13.74481094 26.95948343 -16.30111018 27.11724423 -19.125 27.0625 C-20.40375 27.041875 -21.6825 27.02125 -23 27 C-23.66 27.66 -24.32 28.32 -25 29 C-25 27.68 -25 26.36 -25 25 C-23.19015625 24.87044922 -23.19015625 24.87044922 -21.34375 24.73828125 C-9.08437919 24.16577988 -9.08437919 24.16577988 1 18 C3.37953227 14.10621992 4.02936396 11.86623677 3.875 7.3125 C3.0335871 4.12715118 2.2062365 2.39808315 0 0 Z " fill="#FDF9FA" transform="translate(482,86)"/>
<path d="M0 0 C0.66 0 1.32 0 2 0 C2.8125 1.625 2.8125 1.625 3 4 C-0.54542537 9.26441949 -4.14811181 11.85484405 -10.3125 13.6875 C-17.79993263 14.5581317 -23.6061049 14.46920219 -30 10 C-30.33 9.34 -30.66 8.68 -31 8 C-26.25 9.875 -26.25 9.875 -24 11 C-15.78848358 11.8071812 -8.42637954 10.79704452 -1.9375 5.5 C0.30628583 3.13194168 0.30628583 3.13194168 0 0 Z " fill="#FCF3F5" transform="translate(482,117)"/>
<path d="M0 0 C0.33 0 0.66 0 1 0 C1 5.61 1 11.22 1 17 C5.29 17 9.58 17 14 17 C14.66 15.02 15.32 13.04 16 11 C19.45945946 5.27027027 19.45945946 5.27027027 22 4 C20.45454854 9.47932789 17.84456788 14.11429181 15 19 C12.68756208 19.02685412 10.3750373 19.04632841 8.0625 19.0625 C6.77472656 19.07410156 5.48695313 19.08570313 4.16015625 19.09765625 C1 19 1 19 0 18 C-0.08631874 16.65732587 -0.10706473 15.31025678 -0.09765625 13.96484375 C-0.09443359 13.15595703 -0.09121094 12.34707031 -0.08789062 11.51367188 C-0.07951172 10.66353516 -0.07113281 9.81339844 -0.0625 8.9375 C-0.05798828 8.08349609 -0.05347656 7.22949219 -0.04882812 6.34960938 C-0.03700373 4.23304337 -0.01906769 2.11651315 0 0 Z " fill="#FCF4F6" transform="translate(180,111)"/>
<path d="M0 0 C1.37478516 0.01740234 1.37478516 0.01740234 2.77734375 0.03515625 C3.69644531 0.04417969 4.61554688 0.05320312 5.5625 0.0625 C6.27277344 0.07410156 6.98304688 0.08570312 7.71484375 0.09765625 C7.71484375 0.42765625 7.71484375 0.75765625 7.71484375 1.09765625 C4.41484375 1.42765625 1.11484375 1.75765625 -2.28515625 2.09765625 C-2.40632813 3.38800781 -2.5275 4.67835937 -2.65234375 6.0078125 C-3.10956398 10.13814294 -3.89690246 14.09722705 -4.84741211 18.13867188 C-7.67972172 29.09448865 -7.67972172 29.09448865 -6.28515625 40.09765625 C-5.30622809 41.11829313 -4.30845021 42.12150592 -3.28515625 43.09765625 C-3.28515625 43.75765625 -3.28515625 44.41765625 -3.28515625 45.09765625 C-5.85435595 44.15561636 -7.06931672 43.4429995 -8.53515625 41.09765625 C-10.82037618 31.95677652 -8.45280793 23.00011571 -6.34765625 14.03515625 C-6.06986328 12.80087891 -5.79207031 11.56660156 -5.50585938 10.29492188 C-3.18302661 0.13602678 -3.18302661 0.13602678 0 0 Z " fill="#F1C2CC" transform="translate(351.28515625,83.90234375)"/>
<path d="M0 0 C0.66 1.32 1.32 2.64 2 4 C1.34 3.67 0.68 3.34 0 3 C-4.12109547 3.03182313 -7.86698855 3.37684371 -11.5 5.375 C-13.24093 7.0376104 -13.24093 7.0376104 -14 10 C-7.565 9.505 -7.565 9.505 -1 9 C-4.04614224 12.04614224 -6.35290089 11.96652936 -10.625 12.1875 C-14 12 -14 12 -16 10 C-16 6.27659046 -14.99252473 4.99159032 -12.5 2.1875 C-8.63327614 -0.83043081 -4.69241308 -0.46924131 0 0 Z " fill="#F9E6EA" transform="translate(278,92)"/>
<path d="M0 0 C1 3 1 3 -0.3984375 6.3203125 C-1.04712956 7.59376946 -1.70643153 8.86186492 -2.375 10.125 C-2.705 10.77082031 -3.035 11.41664062 -3.375 12.08203125 C-5.81686282 16.81686282 -5.81686282 16.81686282 -7 18 C-9.18639453 18.07258946 -11.37500389 18.08373783 -13.5625 18.0625 C-15.35880859 18.04896484 -15.35880859 18.04896484 -17.19140625 18.03515625 C-18.11824219 18.02355469 -19.04507813 18.01195312 -20 18 C-20.33 17.34 -20.66 16.68 -21 16 C-20.14277344 16.09023437 -19.28554687 16.18046875 -18.40234375 16.2734375 C-14.52388687 16.38712395 -11.68647828 16.26172831 -8 15 C-4.69789905 10.64403705 -2.90787696 6.08767189 -1 1 C-0.67 0.67 -0.34 0.34 0 0 Z " fill="#FCF1F3" transform="translate(235,112)"/>
<path d="M0 0 C0.99 0.66 1.98 1.32 3 2 C3.5 4.9375 3.5 4.9375 3 8 C-0.8914264 11.10447746 -3.9300343 11.33545351 -8.8125 11.1875 C-10.55466797 11.14689453 -10.55466797 11.14689453 -12.33203125 11.10546875 C-13.21246094 11.07066406 -14.09289062 11.03585938 -15 11 C-15.33 10.01 -15.66 9.02 -16 8 C-14.85546875 6.2109375 -14.85546875 6.2109375 -13.1875 4.375 C-12.64480469 3.76398438 -12.10210937 3.15296875 -11.54296875 2.5234375 C-8.278312 -0.69989448 -4.35379211 -0.50866086 0 0 Z M-14 7 C-14 7.99 -14 8.98 -14 10 C-6.76205058 10.4137448 -6.76205058 10.4137448 0.1875 8.75 C1.0846875 7.88375 1.0846875 7.88375 2 7 C2 5.68 2 4.36 2 3 C-3.99330166 0.00334917 -9.72518302 2.38735554 -14 7 Z " fill="#FAE8EB" transform="translate(474,92)"/>
<path d="M0 0 C1.32 0.33 2.64 0.66 4 1 C3.88601335 2.62580966 3.75844341 4.25067157 3.625 5.875 C3.55539062 6.77992187 3.48578125 7.68484375 3.4140625 8.6171875 C3 11 3 11 1 13 C-1.9093558 13.14517744 -4.719946 13.18630796 -7.625 13.125 C-8.42679687 13.11597656 -9.22859375 13.10695313 -10.0546875 13.09765625 C-12.03658523 13.07406223 -14.01832981 13.03819065 -16 13 C-16 12.01 -16 11.02 -16 10 C-10.39 10 -4.78 10 1 10 C1.33 7.03 1.66 4.06 2 1 C1.34 0.67 0.68 0.34 0 0 Z " fill="#F9E5E9" transform="translate(345,69)"/>
<path d="M0 0 C3.63 0 7.26 0 11 0 C11.15364051 4.30193437 11.12658329 8.0223153 10 12.1875 C8.54489815 17.70423289 8.54489815 17.70423289 10 23 C8.35 23 6.7 23 5 23 C5.20496094 21.91460937 5.40992188 20.82921875 5.62109375 19.7109375 C5.89326183 18.26563115 6.16539542 16.8203183 6.4375 15.375 C6.57220703 14.66214844 6.70691406 13.94929688 6.84570312 13.21484375 C7.61018271 9.15004987 8.33669637 5.08285925 9 1 C6.03 1 3.06 1 0 1 C0 0.67 0 0.34 0 0 Z " fill="#FBEDF0" transform="translate(405,66)"/>
<path d="M0 0 C0.47308594 0.34933594 0.94617188 0.69867188 1.43359375 1.05859375 C6.60032163 4.61386654 10.74807789 5.84080754 17 6 C17 6.66 17 7.32 17 8 C11.34037856 8.34650743 7.96111218 7.48055609 3 5 C2.67 4.67 2.34 4.34 2 4 C1.01 5.485 1.01 5.485 0 7 C-2.6015625 7.29296875 -2.6015625 7.29296875 -5.625 7.1875 C-7.12933594 7.14689453 -7.12933594 7.14689453 -8.6640625 7.10546875 C-9.82035156 7.05326172 -9.82035156 7.05326172 -11 7 C-11.33 6.34 -11.66 5.68 -12 5 C-8.37 5 -4.74 5 -1 5 C-0.67 3.35 -0.34 1.7 0 0 Z " fill="#FDF7F8" transform="translate(403,123)"/>
<path d="M0 0 C1.051875 1.1446875 1.051875 1.1446875 2.125 2.3125 C8.23119438 8.02046431 13.94544559 8.58437353 22 9 C22 9.66 22 10.32 22 11 C14.02920417 11.4330211 8.38845534 10.88379178 2.0625 5.5 C0 3 0 3 0 0 Z " fill="#FDF8F9" transform="translate(251,120)"/>
<path d="M0 0 C0.99 0.33 1.98 0.66 3 1 C0.88094537 3.17277714 -1.24472878 5.33826908 -3.375 7.5 C-3.97828125 8.12003906 -4.5815625 8.74007812 -5.203125 9.37890625 C-5.78320312 9.96542969 -6.36328125 10.55195312 -6.9609375 11.15625 C-7.49509277 11.70087891 -8.02924805 12.24550781 -8.57958984 12.80664062 C-10 14 -10 14 -12 14 C-10.41332422 10.09714233 -7.86649519 7.66479018 -4.875 4.75 C-3.96492188 3.85796875 -3.05484375 2.9659375 -2.1171875 2.046875 C-1.41851562 1.37140625 -0.71984375 0.6959375 0 0 Z " fill="#D64663" transform="translate(40,38)"/>
<path d="M0 0 C0.66 0.33 1.32 0.66 2 1 C1.55269531 1.50789063 1.10539062 2.01578125 0.64453125 2.5390625 C-2.96286942 6.64642275 -6.52114925 10.78321121 -10 15 C-10.33 14.01 -10.66 13.02 -11 12 C-8.3453287 7.13975593 -4.50381421 3.17916297 0 0 Z " fill="#E68FA1" transform="translate(262,86)"/>
<path d="M0 0 C2 2 2 2 2.046875 3.98828125 C0.94384449 12.62384904 0.94384449 12.62384904 -1 16 C-3.07421875 17.12890625 -3.07421875 17.12890625 -5 18 C-4.80664062 17.3709375 -4.61328125 16.741875 -4.4140625 16.09375 C-2.7907875 10.75783615 -1.30539435 5.42240732 0 0 Z " fill="#FAE8EB" transform="translate(164,115)"/>
<path d="M0 0 C2.97 0 5.94 0 9 0 C9.66 1.32 10.32 2.64 11 4 C10.1015625 6.359375 10.1015625 6.359375 8.625 8.75 C7.90183594 9.94882813 7.90183594 9.94882813 7.1640625 11.171875 C6.77992188 11.77515625 6.39578125 12.3784375 6 13 C4.60804085 8.82412255 6.17676781 6.86525224 8 3 C5.03 2.67 2.06 2.34 -1 2 C-0.67 1.34 -0.34 0.68 0 0 Z " fill="#F7DDE3" transform="translate(243,69)"/>
<path d="M0 0 C2 2 2 2 2.16015625 4.12890625 C2.12792969 4.93199219 2.09570312 5.73507813 2.0625 6.5625 C2.00809809 8.04081272 1.97973733 9.52082541 2 11 C3.03406673 12.25949049 3.03406673 12.25949049 5.28515625 12.09765625 C6.20167969 12.08605469 7.11820312 12.07445313 8.0625 12.0625 C8.98160156 12.05347656 9.90070313 12.04445313 10.84765625 12.03515625 C11.55792969 12.02355469 12.26820313 12.01195313 13 12 C10.59653621 14.40346379 9.86099805 14.32083747 6.5625 14.375 C5.78003906 14.40335938 4.99757813 14.43171875 4.19140625 14.4609375 C2 14 2 14 0.1953125 12.3046875 C-1.28599651 9.44856882 -1.14444591 7.90708086 -0.6875 4.75 C-0.56761719 3.85796875 -0.44773437 2.9659375 -0.32421875 2.046875 C-0.21722656 1.37140625 -0.11023438 0.6959375 0 0 Z " fill="#F4CFD6" transform="translate(354,106)"/>
<path d="M0 0 C2.46800047 1.15173355 4.04783565 2.04783565 6 4 C6.44921875 6.05859375 6.44921875 6.05859375 6.6875 8.4375 C6.77386719 9.21996094 6.86023438 10.00242187 6.94921875 10.80859375 C7 13 7 13 6 16 C3.9375 17.1875 3.9375 17.1875 2 18 C2.350625 16.989375 2.70125 15.97875 3.0625 14.9375 C4.17077122 11.02688583 3.97651932 7.98119416 3 4 C1.57324827 1.61971709 1.57324827 1.61971709 0 0 Z " fill="#FAE8EC" transform="translate(482,86)"/>
<path d="M0 0 C0 0.99 0 1.98 0 3 C-1 4 -1 4 -3.94140625 4.09765625 C-5.73384766 4.08025391 -5.73384766 4.08025391 -7.5625 4.0625 C-9.35880859 4.04896484 -9.35880859 4.04896484 -11.19140625 4.03515625 C-12.11824219 4.02355469 -13.04507813 4.01195312 -14 4 C-14.33 3.34 -14.66 2.68 -15 2 C-14.08476562 1.93941406 -13.16953125 1.87882812 -12.2265625 1.81640625 C-10.44378906 1.69072266 -10.44378906 1.69072266 -8.625 1.5625 C-7.44164062 1.48128906 -6.25828125 1.40007812 -5.0390625 1.31640625 C-2.08481099 1.18915064 -2.08481099 1.18915064 0 0 Z " fill="#FEFBFC" transform="translate(229,126)"/>
<path d="M0 0 C-1 2 -1 2 -3.6875 3.1875 C-7.23590538 4.05786358 -9.47952545 3.83820823 -13 3 C-4.03773585 -2.01886792 -4.03773585 -2.01886792 0 0 Z " fill="#FAE9ED" transform="translate(119,170)"/>
<path d="M0 0 C0.33 0.99 0.66 1.98 1 3 C0 4 0 4 -2.50390625 4.09765625 C-4.01791016 4.08025391 -4.01791016 4.08025391 -5.5625 4.0625 C-6.57441406 4.05347656 -7.58632813 4.04445312 -8.62890625 4.03515625 C-9.41136719 4.02355469 -10.19382812 4.01195312 -11 4 C-11.33 3.34 -11.66 2.68 -12 2 C-11.21753906 1.93941406 -10.43507813 1.87882812 -9.62890625 1.81640625 C-8.61699219 1.73261719 -7.60507812 1.64882812 -6.5625 1.5625 C-5.55316406 1.48128906 -4.54382813 1.40007812 -3.50390625 1.31640625 C-1.06359221 1.26788532 -1.06359221 1.26788532 0 0 Z " fill="#FFFFFF" transform="translate(403,126)"/>
<path d="M0 0 C4.62 0 9.24 0 14 0 C10.85422557 2.09718296 10.43193629 2.19223461 6.9375 1.9375 C5.638125 1.958125 4.33875 1.97875 3 2 C2.01 3.485 2.01 3.485 1 5 C0.67 3.35 0.34 1.7 0 0 Z " fill="#FDF7F8" transform="translate(260,111)"/>
<path d="M0 0 C2 2 2 2 2.1953125 5.0390625 C2.17210937 6.22242187 2.14890625 7.40578125 2.125 8.625 C2.10695312 9.81351563 2.08890625 11.00203125 2.0703125 12.2265625 C2.04710937 13.14179687 2.02390625 14.05703125 2 15 C1.67 15 1.34 15 1 15 C0.67 11.7 0.34 8.4 0 5 C-0.66 5 -1.32 5 -2 5 C-1.34 3.35 -0.68 1.7 0 0 Z " fill="#FDF6F7" transform="translate(211,91)"/>
<path d="M0 0 C0.66 0.33 1.32 0.66 2 1 C0.71451591 2.33929505 -0.57858155 3.67128643 -1.875 5 C-2.59429687 5.7425 -3.31359375 6.485 -4.0546875 7.25 C-6 9 -6 9 -8 9 C-6.4169423 4.7257442 -3.49431596 2.73468206 0 0 Z " fill="#DF7187" transform="translate(459,86)"/>
<path d="M0 0 C0.66 0.33 1.32 0.66 2 1 C1.4140625 7.15234375 1.4140625 7.15234375 1 9 C0.01 9.495 0.01 9.495 -1 10 C-0.67 6.7 -0.34 3.4 0 0 Z " fill="#FEFBFB" transform="translate(359,84)"/>
<path d="M0 0 C2.46278801 2.46278801 2.99771255 4.70676982 4 8 C2.35 8 0.7 8 -1 8 C-0.67 5.36 -0.34 2.72 0 0 Z " fill="#F7DBE1" transform="translate(411,81)"/>
</svg>
